HIERARCHY
ROOT Hips
{
	OFFSET -0.001795 -0.223333 0.028219
	CHANNELS 6 Xposition Yposition Zposition Zrotation Yrotation Xrotation 
	JOINT LeftUpLeg
	{
		OFFSET 0.069520 -0.091406 -0.006815
		CHANNELS 3 Zrotation Yrotation Xrotation
		JOINT LeftLeg
		{
			OFFSET 0.034277 -0.375199 -0.004496
			CHANNELS 3 Zrotation Yrotation Xrotation
			JOINT LeftFoot
			{
				OFFSET -0.013596 -0.397961 -0.043693
				CHANNELS 3 Zrotation Yrotation Xrotation
				JOINT LeftToe
				{
					OFFSET 0.026358 -0.055791 0.119288
					CHANNELS 3 Zrotation Yrotation Xrotation
					End Site
					{
						OFFSET 0.000000 0.000000 0.000000
					}
				}
			}
		}
	}
	JOINT RightUpLeg
	{
		OFFSET -0.067670 -0.090522 -0.004320
		CHANNELS 3 Zrotation Yrotation Xrotation
		JOINT RightLeg
		{
			OFFSET -0.038290 -0.382569 -0.008850
			CHANNELS 3 Zrotation Yrotation Xrotation
			JOINT RightFoot
			{
				OFFSET 0.015774 -0.398415 -0.042312
				CHANNELS 3 Zrotation Yrotation Xrotation
				JOINT RightToe
				{
					OFFSET -0.025372 -0.048144 0.123348
					CHANNELS 3 Zrotation Yrotation Xrotation
					End Site
					{
						OFFSET 0.000000 0.000000 0.000000
					}
				}
			}
		}
	}
	JOINT Spine
	{
		OFFSET -0.002533 0.108963 -0.026696
		CHANNELS 3 Zrotation Yrotation Xrotation
		JOINT Spine1
		{
			OFFSET 0.005487 0.135180 0.001092
			CHANNELS 3 Zrotation Yrotation Xrotation
			JOINT Spine2
			{
				OFFSET 0.001457 0.052922 0.025425
				CHANNELS 3 Zrotation Yrotation Xrotation
				JOINT Neck
				{
					OFFSET -0.002778 0.213870 -0.042857
					CHANNELS 3 Zrotation Yrotation Xrotation
					JOINT Head
					{
						OFFSET 0.005152 0.064970 0.051349
						CHANNELS 3 Zrotation Yrotation Xrotation
						End Site
						{
							OFFSET 0.000000 0.000000 0.000000
						}
					}
				}
				JOINT LeftShoulder
				{
					OFFSET 0.078845 0.121749 -0.034090
					CHANNELS 3 Zrotation Yrotation Xrotation
					JOINT LeftArm
					{
						OFFSET 0.090977 0.030469 -0.008868
						CHANNELS 3 Zrotation Yrotation Xrotation
						JOINT LeftForeArm
						{
							OFFSET 0.259612 -0.012772 -0.027456
							CHANNELS 3 Zrotation Yrotation Xrotation
							JOINT LeftHand
							{
								OFFSET 0.249234 0.008986 -0.001171
								CHANNELS 3 Zrotation Yrotation Xrotation
								End Site
								{
									OFFSET 0.000000 0.000000 0.000000
								}
							}
						}
					}
				}
				JOINT RightShoulder
				{
					OFFSET -0.081759 0.118833 -0.038615
					CHANNELS 3 Zrotation Yrotation Xrotation
					JOINT RightArm
					{
						OFFSET -0.096012 0.032551 -0.009143
						CHANNELS 3 Zrotation Yrotation Xrotation
						JOINT RightForeArm
						{
							OFFSET -0.253742 -0.013329 -0.021401
							CHANNELS 3 Zrotation Yrotation Xrotation
							JOINT RightHand
							{
								OFFSET -0.255298 0.007772 -0.005559
								CHANNELS 3 Zrotation Yrotation Xrotation
								End Site
								{
									OFFSET 0.000000 0.000000 0.000000
								}
							}
						}
					}
				}
			}
		}
	}
}
MOTION
Frames: 15
Frame Time: 0.050000
0.000000 0.950703 0.000000 -0.342263 7.966525 3.451108 4.277613 -0.078837 1.742313 -1.808356 0.268761 -7.574693 -0.734149 4.017660 11.137548 0.000000 0.000000 0.000000 0.609481 -0.279506 2.406159 -1.057018 -0.104541 -4.660983 -2.104408 -7.561334 9.798431 0.000000 0.000000 0.000000 -0.759945 -0.032373 1.330270 2.741776 0.084405 -23.981473 0.255781 -0.313176 29.125868 0.548672 1.900228 -23.989900 0.000000 0.000000 0.000000 -15.847417 2.538029 -3.139623 -53.802621 -1.005083 -8.381919 -16.968400 -27.862949 5.419464 0.000000 0.000000 0.000000 7.871741 2.025048 1.072878 60.391304 2.083303 -7.013278 7.255927 32.663910 4.062133 0.000000 0.000000 0.000000 
-0.000020 0.949853 0.000018 -0.579438 7.599206 4.017961 4.367940 -0.073810 2.022505 -1.199558 0.270464 -8.691843 -0.609613 3.751728 10.090953 0.000000 0.000000 0.000000 0.408846 -0.169206 1.498857 -0.751749 -0.102601 -4.131406 -1.981432 -7.315223 9.646515 0.000000 0.000000 0.000000 -0.316064 -0.016151 0.554891 2.709862 0.108155 -24.680129 0.200923 0.009288 29.726211 0.623086 1.890277 -24.193973 0.000000 0.000000 0.000000 -14.740612 3.560534 -3.478528 -54.875149 -0.856446 -8.712627 -18.903293 -28.173930 6.009525 0.000000 0.000000 0.000000 6.523863 2.171782 1.097118 62.027995 0.415413 -7.941429 7.039789 34.109543 4.277257 0.000000 0.000000 0.000000 
0.000038 0.949548 -0.000003 -0.152274 7.953567 4.315173 4.217964 -0.108740 1.170243 -1.258594 0.250310 -7.164745 -1.353263 2.200597 9.336204 0.000000 0.000000 0.000000 -0.106086 -0.145657 1.435861 -0.736028 -0.117805 -4.421360 -1.718638 -6.514185 8.570831 0.000000 0.000000 0.000000 -0.825239 0.007425 0.211586 3.161235 0.017091 -24.934539 -0.238830 -0.031728 30.175417 0.488707 2.104644 -25.778077 0.000000 0.000000 0.000000 -14.389867 3.389845 -3.369082 -55.310024 -0.677719 -8.907522 -18.505443 -28.021607 5.868721 0.000000 0.000000 0.000000 6.908271 2.388926 1.229180 62.208407 -0.243213 -8.300591 6.304127 33.844243 4.023930 0.000000 0.000000 0.000000 
0.000145 0.949467 0.000069 -0.047651 7.996048 4.284901 4.035236 -0.086221 1.448821 -0.851193 0.242180 -7.384382 -1.542445 2.069189 9.741925 0.000000 0.000000 0.000000 -0.382696 -0.187994 1.916972 -0.178977 -0.185461 -4.917544 -1.435741 -6.061717 9.225214 0.000000 0.000000 0.000000 -1.053326 0.017802 0.015393 3.320296 -0.002166 -25.507263 -0.198935 -0.492439 31.045998 0.568790 1.954594 -25.251971 0.000000 0.000000 0.000000 -14.272328 4.401261 -3.758562 -55.579955 0.349325 -9.480250 -19.906809 -28.862759 6.492164 0.000000 0.000000 0.000000 5.772221 3.097930 1.441552 62.398629 0.180209 -8.135710 6.326653 32.776354 3.818283 0.000000 0.000000 0.000000 
0.000170 0.949929 0.000190 0.098378 8.025665 4.121838 3.788328 -0.082181 1.225960 -0.680706 0.224948 -6.684051 -1.611665 1.806103 9.411590 0.000000 0.000000 0.000000 -0.498511 -0.208153 2.142928 -0.346478 -0.184453 -5.166191 -1.738382 -6.623521 8.911643 0.000000 0.000000 0.000000 -1.213137 0.016651 0.144202 3.941113 -0.163604 -25.058337 -0.659134 -0.011409 30.556072 1.002532 1.751314 -24.748764 0.000000 0.000000 0.000000 -13.409310 4.378159 -3.696121 -55.950913 0.821515 -9.726236 -21.338555 -29.472543 6.971124 0.000000 0.000000 0.000000 5.675927 2.619269 1.263575 62.606594 0.162887 -8.025056 6.279871 32.292618 3.759234 0.000000 0.000000 0.000000 
0.000290 0.950368 0.000221 0.145063 7.673956 4.196656 3.566508 -0.074436 1.102522 -0.352726 0.212443 -6.533173 -1.438559 2.074769 9.419986 0.000000 0.000000 0.000000 -0.828284 -0.212248 2.310645 -0.146333 -0.213921 -5.480060 -1.324405 -5.882793 9.291411 0.000000 0.000000 0.000000 -1.250518 0.025517 -0.138925 4.002039 -0.181544 -25.103646 -0.388527 -0.117603 30.998339 1.101935 1.662646 -25.098758 0.000000 0.000000 0.000000 -13.195990 4.758353 -3.779584 -56.172860 0.944666 -9.859109 -22.234574 -30.049207 7.418979 0.000000 0.000000 0.000000 5.056001 2.693304 1.242801 62.879726 0.180201 -8.081857 5.474003 31.817918 3.456207 0.000000 0.000000 0.000000 
0.000361 0.950730 0.000183 0.172725 7.456650 4.153569 3.529237 -0.072817 1.056287 -0.521439 0.217524 -6.444460 -1.276252 2.406688 9.589596 0.000000 0.000000 0.000000 -0.889449 -0.209715 2.314129 -0.327442 -0.197394 -5.404452 -1.147497 -5.514229 9.180150 0.000000 0.000000 0.000000 -1.371626 0.022910 0.038400 4.255183 -0.246189 -25.065228 -0.520136 -0.212074 31.011235 1.314714 1.508826 -25.293607 0.000000 0.000000 0.000000 -12.619588 4.960130 -3.730915 -56.501104 1.221881 -10.059983 -23.163648 -30.809860 7.925723 0.000000 0.000000 0.000000 4.969921 2.634689 1.199451 62.839620 0.490833 -7.949353 5.262718 31.866321 3.398691 0.000000 0.000000 0.000000 
0.000505 0.951006 0.000023 0.095819 7.071960 4.229547 3.490390 -0.083037 0.783706 -0.513475 0.208616 -5.978229 -0.915427 2.877171 9.341342 0.000000 0.000000 0.000000 -0.950585 -0.187137 2.127677 -0.255164 -0.194952 -5.243055 -0.743835 -4.727019 9.215247 0.000000 0.000000 0.000000 -1.386816 0.029526 -0.179891 4.343876 -0.283648 -24.857556 -0.345540 -0.471155 31.371707 1.417273 1.380919 -25.586944 0.000000 0.000000 0.000000 -12.201946 4.657783 -3.423443 -56.648994 1.182351 -10.109640 -23.564457 -31.352323 8.268518 0.000000 0.000000 0.000000 4.765832 2.490789 1.105036 62.749178 0.754824 -7.910296 4.433529 32.181039 3.207485 0.000000 0.000000 0.000000 
0.000781 0.951131 -0.000235 0.021206 6.431162 4.215450 3.433769 -0.077647 0.746879 -0.485419 0.206030 -5.819924 -0.685888 3.170976 9.256384 0.000000 0.000000 0.000000 -1.013754 -0.165286 1.951113 -0.270465 -0.185713 -5.066033 -0.428697 -4.146792 9.214689 0.000000 0.000000 0.000000 -1.394271 0.026180 -0.030028 4.600254 -0.350570 -24.894932 -0.327212 -0.731157 31.564394 1.429875 1.268646 -25.773907 0.000000 0.000000 0.000000 -12.054064 4.633636 -3.271106 -56.784412 1.025250 -10.070603 -23.464682 -31.525514 8.381375 0.000000 0.000000 0.000000 4.562814 2.431428 1.033416 62.562047 1.023180 -7.866096 3.726491 32.951637 3.080189 0.000000 0.000000 0.000000 
0.001211 0.951362 -0.000656 -0.058916 5.532198 4.164014 3.204776 -0.061624 0.736520 -0.403472 0.192382 -5.310214 -0.224286 3.645832 8.684161 0.000000 0.000000 0.000000 -1.184624 -0.119691 1.572635 -0.206150 -0.184774 -4.944220 -0.192231 -3.826957 9.438278 0.000000 0.000000 0.000000 -1.392255 0.027142 -0.049286 4.847746 -0.441140 -24.522403 -0.303175 -0.984591 31.510416 1.422334 1.116729 -25.609676 0.000000 0.000000 0.000000 -11.817314 4.207674 -2.896263 -56.738502 1.154557 -10.097093 -23.346867 -32.173309 8.630640 0.000000 0.000000 0.000000 4.548676 2.739993 1.106589 62.126696 1.229210 -7.845897 2.961446 33.932545 2.922742 0.000000 0.000000 0.000000 
0.001770 0.951642 -0.001250 -0.170207 4.498973 4.180144 3.238116 -0.036982 1.063080 -0.577281 0.207781 -5.452922 0.101397 4.139415 8.752709 0.000000 0.000000 0.000000 -1.240555 -0.077776 1.184415 -0.196744 -0.167386 -4.539182 0.097949 -3.404141 9.603605 0.000000 0.000000 0.000000 -1.252462 0.018319 0.196546 5.068772 -0.506643 -24.512480 -0.427498 -1.467277 31.406686 1.477733 0.882156 -25.600968 0.000000 0.000000 0.000000 -11.884434 3.818413 -2.533030 -56.655305 1.118514 -10.021741 -23.016806 -32.461211 8.744555 0.000000 0.000000 0.000000 4.588875 2.825218 1.067822 61.402404 1.407604 -7.838083 3.396300 34.950676 3.065290 0.000000 0.000000 0.000000 
0.002416 0.952155 -0.002110 -0.269083 2.801684 4.323698 3.145055 -0.025672 1.007344 -0.591449 0.197530 -4.857364 1.050229 5.420916 8.143512 0.000000 0.000000 0.000000 -1.381689 -0.013511 0.594633 -0.445096 -0.130700 -4.109120 0.758978 -2.156453 9.328286 0.000000 0.000000 0.000000 -1.203654 0.015889 0.297046 5.434300 -0.629772 -24.289994 -0.819122 -2.189107 31.094110 1.049547 0.833783 -25.725868 0.000000 0.000000 0.000000 -11.541242 3.820611 -2.222217 -56.339210 1.451790 -10.010677 -22.884818 -33.181776 9.112368 0.000000 0.000000 0.000000 3.986576 3.080215 1.052450 61.005982 1.459773 -7.949031 3.614144 36.212067 3.088356 0.000000 0.000000 0.000000 
0.002874 0.952341 -0.003327 -0.400030 1.025341 4.499219 3.092711 0.006564 1.319510 -0.650412 0.214013 -5.186823 1.903061 6.778138 8.185132 0.000000 0.000000 0.000000 -1.217313 0.062502 -0.253891 -0.780498 -0.075513 -3.409945 1.254978 -1.305710 9.211250 0.000000 0.000000 0.000000 -1.141091 0.007329 0.580305 5.457653 -0.674395 -24.032964 -1.179996 -3.257416 30.843535 0.779495 0.623261 -25.882123 0.000000 0.000000 0.000000 -11.252462 3.788980 -1.869141 -55.711542 1.825757 -9.951728 -22.888243 -33.727760 9.503108 0.000000 0.000000 0.000000 3.499544 2.916590 0.874654 60.026245 1.893785 -7.865322 4.704488 37.220769 3.286861 0.000000 0.000000 0.000000 
0.003266 0.952808 -0.004956 -0.647243 -0.832142 4.905480 3.325899 0.005749 1.272097 -0.848561 0.231578 -5.216219 2.856930 8.270084 8.064925 0.000000 0.000000 0.000000 -0.835796 0.154664 -1.344570 -1.399480 -0.022968 -3.209567 2.218724 0.386172 9.359771 0.000000 0.000000 0.000000 -1.335380 0.004843 0.939890 6.082150 -0.837194 -24.130161 -1.958875 -4.472554 30.525937 0.112539 0.604133 -25.689045 0.000000 0.000000 0.000000 -10.891938 3.852584 -1.576258 -54.594319 2.104178 -9.712711 -23.206105 -34.049616 9.902972 0.000000 0.000000 0.000000 2.893875 2.525602 0.634654 59.262674 1.358773 -8.265591 5.775134 39.231728 3.530684 0.000000 0.000000 0.000000 
0.003658 0.953307 -0.006775 -1.113154 -3.000133 5.273905 3.467136 0.010195 1.193175 -0.571266 0.221768 -5.338003 3.623895 9.496487 8.250862 0.000000 0.000000 0.000000 -0.369865 0.223210 -2.191592 -1.656709 0.016391 -2.707024 3.077267 2.029748 9.086496 0.000000 0.000000 0.000000 -1.270839 0.001689 1.053352 6.288668 -0.930933 -23.854360 -2.580481 -5.558168 30.071535 0.280540 0.098688 -25.751365 0.000000 0.000000 0.000000 -10.620928 3.366675 -1.038656 -53.168679 2.187843 -9.365114 -22.601322 -34.154037 9.897430 0.000000 0.000000 0.000000 2.439150 1.563403 0.201925 58.392169 1.261930 -8.407944 6.191785 40.431523 3.398678 0.000000 0.000000 0.000000 
